<?xml version="1.0" encoding="utf-8"?>
<!-- Generator: Adobe Illustrator 22.1.0, SVG Export Plug-In . SVG Version: 6.00 Build 0)  -->
<svg version="1.1" xmlns="http://www.w3.org/2000/svg" xmlns:xlink="http://www.w3.org/1999/xlink" x="0px" y="0px"
	 viewBox="0 0 1920 1688.4" style="enable-background:new 0 0 1920 1688.4;" xml:space="preserve">
<style type="text/css">
	.st0{fill:#1377CB;}
	.st1{fill:#F44E42;}
</style>
<g id="bg">
</g>
<g id="lines">
	<path class="st0" d="M474.9,968.8H301.5v-42.1h173.5V968.8z"/>
	<path class="st0" d="M1669.5,968.8h-191.2v-42.1h191.2V968.8z"/>
	<path class="st0" d="M1627.4,1463.2V932h42.1v531.2H1627.4z"/>
	<polygon class="st0" points="1717,1414.4 1648.4,1512 1579.9,1414.4 	"/>
</g>
<g id="years">
	<g>
		<path class="st1" d="M339.3,1064.4h41.3v23.1h-79.1v-8.4c0-31.5,47.5-34,47.5-46.6c0-3.6-2.9-6-10-6c-7.5,0-16.4,3.5-24.7,8.8
			l-11.8-18.4c10.8-7.8,22.4-13.3,40.2-13.3c23.6,0,37.8,11.7,37.8,25.4C380.6,1046.2,360.9,1054.6,339.3,1064.4z"/>
		<path class="st1" d="M431.9,1090.3c-26,0-43.3-14.3-43.3-37.7v-11.2c0-23.6,17.3-37.7,43.3-37.7c25.9,0,43,14.1,43,37.7v11.2
			C474.9,1076,457.8,1090.3,431.9,1090.3z M442.4,1040.3c0-9.1-3.8-13.6-10.5-13.6c-6.8,0-10.6,4.5-10.6,13.6v13.3
			c0,9,3.8,13.7,10.6,13.7c6.7,0,10.5-4.7,10.5-13.7V1040.3z"/>
		<path class="st1" d="M339.3,1159.4h41.3v23.1h-79.1v-8.4c0-31.5,47.5-34,47.5-46.6c0-3.6-2.9-6-10-6c-7.5,0-16.4,3.5-24.7,8.8
			l-11.8-18.4c10.8-7.8,22.4-13.3,40.2-13.3c23.6,0,37.8,11.7,37.8,25.4C380.6,1141.2,360.9,1149.5,339.3,1159.4z"/>
		<path class="st1" d="M431.9,1185.3c-26,0-43.3-14.3-43.3-37.7v-11.2c0-23.6,17.3-37.7,43.3-37.7c25.9,0,43,14.1,43,37.7v11.2
			C474.9,1170.9,457.8,1185.3,431.9,1185.3z M442.4,1135.3c0-9.1-3.8-13.6-10.5-13.6c-6.8,0-10.6,4.5-10.6,13.6v13.3
			c0,9,3.8,13.7,10.6,13.7c6.7,0,10.5-4.7,10.5-13.7V1135.3z"/>
	</g>
	<g>
		<path class="st1" d="M427.4,793.3c-16.5,0-27.1-3.9-38.2-10.7l11.1-18.1c6.4,3.9,14.8,6.4,23.1,6.4c12.9,0,18.6-7.9,18.6-15.2
			v-3.5c-5.8,5.2-12,8.9-22.5,8.9c-18.7,0-29.7-9.6-29.7-23v-1.6c0-15.6,15.7-29.8,41.1-29.8c27,0,44,15,44,37.8v8.4
			C474.9,776.9,453.1,793.3,427.4,793.3z M442,739.1c0-5.3-4.4-9.5-10.6-9.5c-7.2,0-10.9,4-10.9,7.9v2.2c0,4.1,3.2,7.4,9.6,7.4
			c5.3,0,9-2.3,11.9-5.5V739.1z"/>
		<path class="st1" d="M345.6,893.4c-27.1,0-44.1-14.6-44.1-37.2v-9.7c0-23.6,20.5-39.6,47-39.6c16.2,0,25.5,3.8,36,10.7l-11.7,17.6
			c-6-3.5-12.6-5.8-20.5-5.8c-10.8,0-17.9,6.2-17.9,15.8v4.4c6.1-5.7,13.5-10.1,25.7-10.1c17.3,0,26.5,11.3,26.5,23.5v1.6
			C386.6,880,370.9,893.4,345.6,893.4z M356.1,861c0-4-3.2-7.4-9.7-7.4c-5.2,0-8.9,2.3-11.9,5.5v2.4c0,5,4.5,9.1,10.6,9.1
			c7.2,0,11.1-4,11.1-7.9V861z"/>
		<path class="st1" d="M432.8,893.4c-28.7,0-42.2-10.9-42.2-23.8v-1.1c0-8,6.2-15.4,18.8-19c-10.7-1.9-17-9.1-17-17.1v-1
			c0-12.2,11.7-24.6,40.4-24.6c28.6,0,40.5,12.4,40.5,24.6v1c0,8-6.6,15.2-17.1,17.1c12.8,3.5,18.8,10.9,18.8,19v1.1
			C474.9,882.5,461.6,893.4,432.8,893.4z M441.6,834.5c0-3.3-2.1-6.7-8.9-6.7c-6.7,0-9,3.4-9,6.7v2.2c0,4.3,3.5,6.8,9,6.8
			s8.9-2.6,8.9-6.8V834.5z M441.6,863.3c0-3.6-2.8-6.6-8.9-6.6s-9,2.9-9,6.6v2.4c0,3.6,2.6,6.8,9,6.8c6.4,0,8.9-3.2,8.9-6.8V863.3z"
			/>
		<path class="st1" d="M360.1,767.4v-24.1v-33.8H340h-15.7c0,9.2-6.1,13.7-12.6,13.7v20.1h14.6v24.1h-19.3v23.1h19.3h33.8h20.2
			c0,0,0-16.8,0-23.1H360.1z"/>
	</g>
</g>
<g id="stars">
	<polygon class="st1" points="1546.6,755.8 1526,770.2 1533.2,746.1 1513.2,731 1538.3,730.5 1546.6,706.7 1554.8,730.5 1579.9,731 
		1559.9,746.1 1567.2,770.2 	"/>
	<polygon class="st1" points="1546.6,862.2 1526,876.5 1533.2,852.5 1513.2,837.4 1538.3,836.8 1546.6,813.1 1554.8,836.8 
		1579.9,837.4 1559.9,852.5 1567.2,876.5 	"/>
	<polygon class="st1" points="1543.5,1062.5 1522.9,1076.8 1530.2,1052.8 1510.2,1037.6 1535.3,1037.1 1543.5,1013.4 1551.8,1037.1 
		1576.9,1037.6 1556.9,1052.8 1564.1,1076.8 	"/>
	<polygon class="st1" points="1543.5,1168.8 1522.9,1183.2 1530.2,1159.2 1510.2,1144 1535.3,1143.5 1543.5,1119.8 1551.8,1143.5 
		1576.9,1144 1556.9,1159.2 1564.1,1183.2 	"/>
	<rect x="932.5" y="-1155.4" style="fill:none;" width="921.1" height="198"/>
	<text transform="matrix(1 0 0 1 932.5242 -1088.7517)" style="font-family:'Knockout-72FullCruiserwt'; font-size:100px;">Michael Bennet</text>
</g>
</svg>
