<?xml version="1.0" encoding="utf-8"?>
<!-- Generator: Adobe Illustrator 22.1.0, SVG Export Plug-In . SVG Version: 6.00 Build 0)  -->
<svg version="1.1" xmlns="http://www.w3.org/2000/svg" xmlns:xlink="http://www.w3.org/1999/xlink" x="0px" y="0px"
	 viewBox="0 0 1920 1688.4" style="enable-background:new 0 0 1920 1688.4;" xml:space="preserve">
<style type="text/css">
	.st0{fill:#06113B;}
	.st1{fill:none;stroke:#EDF216;stroke-width:50;stroke-miterlimit:10;}
</style>
<g id="title">
	<path class="st0" d="M592.6,1185.3c-37.9,0-68.1-32.3-68.1-80V786.7c0-47,30.2-80,68.1-80c37.9,0,65.3,33,65.3,80v89.1h-36.5v-97.5
		c0-15.4-9.8-28.8-26.7-28.8c-17.5,0-27.4,13.3-27.4,28.8v335.4c0,16.1,9.8,28.8,27.4,28.8c16.8,0,26.7-12.6,26.7-28.8v-98.2h36.5
		v89.8C657.9,1153,630.5,1185.3,592.6,1185.3z M759.6,1185.3c-37.9,0-69.5-32.3-69.5-80V786.7c0-47,31.6-80,69.5-80
		c37.9,0,69.5,33,69.5,80v318.6C829.1,1153,797.5,1185.3,759.6,1185.3z M787,778.3c0-15.4-10.5-28.8-27.4-28.8
		c-17.5,0-27.4,13.3-27.4,28.8v335.4c0,16.1,9.8,28.8,27.4,28.8c16.8,0,27.4-12.6,27.4-28.8V778.3z M369.5,184.9
		c-37.9,0-68.1,33-68.1,80v318.6c0,47.7,30.2,80,68.1,80s65.3-32.3,65.3-80v-89.8h-36.5v98.2c0,16.1-9.8,28.8-26.7,28.8
		c-17.5,0-27.4-12.6-27.4-28.8V256.4c0-15.4,9.8-28.8,27.4-28.8c16.8,0,26.7,13.3,26.7,28.8V354h36.5v-89.1
		C434.8,217.8,407.4,184.9,369.5,184.9z M509.2,190.5l-52.6,467.3h38.6l9.8-94.7h46.3l7,94.7h44.2l-49.1-467.3H509.2z M509.2,521.7
		l21.8-216.8l16.8,216.8H509.2z M737.2,478.2l-7.7,77.2l-7.7-77.2l-30.9-287.7h-61.7v467.3h37.2V309.1l7.7,77.9l34.4,270.9h37.9
		l33-270.9l7-77.9v348.7H827V190.5h-59.6L737.2,478.2z M937.9,190.5h-70.2v432.4v34.9v521.9h110.9v-42.1h-68.8V657.8v-34.9V455h28.1
		c27.4,0,62.4-14,62.4-73.7V264.2C1000.3,204.5,965.3,190.5,937.9,190.5z M957.5,387.7c0,18.2-7.7,26.7-19.6,26.7h-28.1v-181h28.1
		c11.9,0,19.6,7.7,19.6,26.7V387.7z M1057.9,190.5l-52.6,467.3h38.6l9.8-94.7h46.3l7,94.7h44.2l-49.1-467.3H1057.9z M1057.9,521.7
		l21.8-216.8l16.8,216.8H1057.9z M1177.9,657.8h42.8V190.5h-42.8V657.8z M1330.1,467.6h24.6v124.2c0,19.6-9.1,32.3-27.4,32.3
		c-18.9,0-27.4-12.6-27.4-32.3V256.4c0-15.4,9.8-28.8,27.4-28.8c16.8,0,27.4,13.3,27.4,28.8v89.8h37.9v-81.4c0-47-27.4-80-65.3-80
		c-37.9,0-69.5,33-69.5,80v318.6c0,56.8,34.4,80,61,80c22.5,0,40.7-10.5,48.4-29.5l13.3,23.9h16.1v-228h-66.7V467.6z M1538.5,190.5
		v316.5l-12.6-72.3l-53.3-244.2h-41.4v467.3h40V345.6l14,70.9l61.7,241.4h31.6V190.5H1538.5z M1065.6,1185.3
		c-37.9,0-69.5-32.3-69.5-80V786.7c0-47,31.6-80,69.5-80s69.5,33,69.5,80v318.6C1135.1,1153,1103.5,1185.3,1065.6,1185.3z
		 M1093,778.3c0-15.4-10.5-28.8-27.4-28.8c-17.5,0-27.4,13.3-27.4,28.8v335.4c0,16.1,9.8,28.8,27.4,28.8c16.8,0,27.4-12.6,27.4-28.8
		V778.3z M1300.7,1183.2c-24.6,0-35.1-9.1-35.1-43.5v-136.1c0-18.9-9.8-30.9-24.6-30.9h-25.3v207h-42.8V712.4h70.9
		c27.4,0,61.7,14,61.7,73.7v108.8c0,28.1-7,49.1-28.8,58.9c21.8,9.8,30.2,30.9,30.2,58.2v127c0,12.6,1.4,18.2,9.1,18.2v26H1300.7z
		 M1263.5,781.8c0-18.9-8.4-26.7-20.3-26.7h-27.4V932h23.9c14,0,23.9-11.9,23.9-30.9V781.8z M1405.2,1185.3
		c-43.5,0-69.5-32.3-69.5-79.3v-63.2h40.7v65.3c0,23.2,11.2,40.7,27.4,40.7c21.8,0,30.2-14.7,30.2-40.7c0-47-16.1-90.5-41.4-143.1
		c-22.5-46.3-53.3-117.2-53.3-165.6c0-54,21.1-92.6,70.9-92.6c38.6,0,63.2,32.3,63.2,80v68.1h-40v-66.7c0-28.1-8.4-41.4-23.9-41.4
		c-18.2,0-29.5,11.9-29.5,37.2c0,54.7,16.8,91.2,45.6,151.6c26.7,56.8,49.1,110.9,49.1,160
		C1474.7,1168.4,1433.3,1185.3,1405.2,1185.3z"/>
</g>
<g id="strokes">
	<path class="st1" d="M416.5,487c0,16.2,0,100.3,0,111c0,63.3-94.5,50.6-94.5,0c0-25,0-92.3,0-106c0-63,0-37,0-138
		c0-34,0-62.2,0-85.9c0-83.3,94.5-83.3,94.5,0c0,22.6,0,60.5,0,94.2"/>
	<polyline class="st1" points="581.3,670.4 529.5,174.3 474.9,670.4 	"/>
	<path class="st1" d="M570.9,543.7c-12.6,0-82.6,0-82.6,0"/>
	<polyline class="st1" points="811,666.3 811,174.3 786.3,174.3 728.1,666.3 670.7,174.3 647,174.3 647,666.3 	"/>
	<path class="st1" d="M889.5,435.5c37.5,0,88,0,88-26s3-123.5,3-159.5S939,208.5,885,208.5c0,0,0,337,0,449.3
		c0,125.8,0,503.2,0,503.2s75.8,0,101,0"/>
	<polyline class="st1" points="1131.4,670.4 1079.6,174.3 1025,670.4 	"/>
	<path class="st1" d="M1121,543.7c-20.7,0-82.6,0-82.6,0"/>
	<path class="st1" d="M1199.3,174.3c0,124,0,496.1,0,496.1"/>
	<path class="st1" d="M1374.6,362.3c0-33.8,0-71.6,0-94.2c0-83.3-94.5-83.3-94.5,0c0,23.7,0,51.9,0,85.9c0,101,0,75,0,138
		c0,13.7,0,81,0,106c0,56,94.5,63.3,94.5,0"/>
	<polyline class="st1" points="1377.5,663.4 1377.5,447.5 1320,447.5 	"/>
	<polyline class="st1" points="1559.7,182.3 1559.7,655.3 1558.3,655.3 1458,182.3 1450.3,182.3 1450.3,663.4 	"/>
	<path class="st1" d="M639.5,885.8c0-33.8,0-71.6,0-94.2c0-83.3-94.5-83.3-94.5,0c0,23.7,0,51.9,0,85.9c0,101,0,75,0,138
		c0,13.7,0,81,0,106c0,50.6,94.5,63.3,94.5,0c0-10.7,0-94.8,0-111"/>
	<path class="st1" d="M806.9,885.8c0-33.8,0-71.6,0-94.2c0-83.3-94.5-83.3-94.5,0c0,23.7,0,51.9,0,85.9c0,101,0,75,0,138
		c0,13.7,0,81,0,106c0,50.6,94.5,63.3,94.5,0c0-10.7,0-94.8,0-111V885.8z"/>
	<path class="st1" d="M1112.8,885.8c0-33.8,0-71.6,0-94.2c0-83.3-94.5-83.3-94.5,0c0,23.7,0,51.9,0,85.9c0,101,0,75,0,138
		c0,13.7,0,81,0,106c0,50.6,94.5,63.3,94.5,0c0-10.7,0-94.8,0-111V885.8z"/>
	<path class="st1" d="M1320,1171.7l-31.7-7.3c0,0-5.3-154-5.3-174.7c0-20.7-36.7-30.7-73.3-38c24,0,73.3-11.3,73.3-24.9
		s0-161.1,0-177.2s-52.7-16.9-88.7-16.9v452.6"/>
	<path class="st1" d="M1353,1034.3c0,96.7,6.7,134.7,53.3,134.7c35.3,0,56.7-64,44-112c-12.7-48-92.7-201.3-92-274.7
		c0.3-28.7,14-57.3,52-57.3c52,0,44,76.7,44,137.3"/>
</g>
</svg>
